# Blender v2.79 (sub 0) OBJ File: ''
# www.blender.org
mtllib sphere.mtl
o Sphere_Sphere.001
v 0.734786 -0.634232 0.120279
v 0.734786 1.365768 0.120279
v 1.088340 1.231793 -0.233275
v 1.347159 0.865768 -0.492094
v 1.441893 0.365768 -0.586828
v 1.347159 -0.134232 -0.492094
v 1.088340 -0.500258 -0.233275
v 1.234786 1.231793 0.120279
v 1.600811 0.865768 0.120279
v 1.734786 0.365768 0.120279
v 1.600811 -0.134232 0.120279
v 1.234786 -0.500258 0.120279
v 1.088339 1.231793 0.473832
v 1.347159 0.865768 0.732651
v 1.441893 0.365768 0.827385
v 1.347159 -0.134232 0.732651
v 1.088340 -0.500258 0.473832
v 0.734786 1.231793 0.620278
v 0.734786 0.865768 0.986304
v 0.734786 0.365768 1.120278
v 0.734786 -0.134232 0.986304
v 0.734786 -0.500258 0.620278
v 0.381233 1.231793 0.473832
v 0.122414 0.865768 0.732651
v 0.027680 0.365768 0.827385
v 0.122414 -0.134232 0.732651
v 0.381233 -0.500258 0.473832
v 0.234786 1.231793 0.120279
v -0.131239 0.865768 0.120279
v -0.265213 0.365768 0.120279
v -0.131239 -0.134232 0.120279
v 0.234786 -0.500258 0.120279
v 0.381233 1.231793 -0.233275
v 0.122414 0.865768 -0.492094
v 0.027680 0.365768 -0.586828
v 0.122414 -0.134232 -0.492094
v 0.381233 -0.500258 -0.233275
v 0.734786 1.231793 -0.379721
v 0.734786 0.865768 -0.745747
v 0.734786 0.365768 -0.879721
v 0.734786 -0.134232 -0.745747
v 0.734786 -0.500258 -0.379721
vt 0.000000 0.000000
vt 1.000000 0.000000
vt 1.000000 1.000000
vt 1.000000 0.000000
vt 0.000000 1.000000
vt 0.000000 0.000000
vt 1.000000 0.000000
vt 0.000000 1.000000
vt 0.000000 0.000000
vt 1.000000 0.000000
vt 0.000000 1.000000
vt 0.000000 0.000000
vt 1.000000 0.000000
vt 0.000000 1.000000
vt 0.000000 0.000000
vt 0.000000 0.000000
vt 1.000000 0.000000
vt 1.000000 1.000000
vt 1.000000 0.000000
vt 0.000000 1.000000
vt 0.000000 0.000000
vt 1.000000 0.000000
vt 0.000000 1.000000
vt 0.000000 0.000000
vt 0.000000 0.000000
vt 1.000000 1.000000
vt 0.000000 1.000000
vt 0.000000 0.000000
vt 1.000000 1.000000
vt 1.000000 0.000000
vt 1.000000 1.000000
vt 1.000000 0.000000
vt 0.000000 1.000000
vt 0.000000 0.000000
vt 1.000000 0.000000
vt 0.000000 1.000000
vt 0.000000 0.000000
vt 1.000000 0.000000
vt 0.000000 1.000000
vt 0.000000 0.000000
vt 0.000000 0.000000
vt 1.000000 1.000000
vt 1.000000 0.000000
vt 1.000000 1.000000
vt 1.000000 0.000000
vt 0.000000 1.000000
vt 0.000000 0.000000
vt 1.000000 0.000000
vt 0.000000 1.000000
vt 0.000000 0.000000
vt 1.000000 0.000000
vt 0.000000 1.000000
vt 0.000000 0.000000
vt 1.000000 0.000000
vt 0.000000 1.000000
vt 0.000000 0.000000
vt 0.000000 0.000000
vt 1.000000 1.000000
vt 1.000000 0.000000
vt 1.000000 1.000000
vt 1.000000 0.000000
vt 0.000000 1.000000
vt 0.000000 0.000000
vt 1.000000 0.000000
vt 0.000000 1.000000
vt 0.000000 0.000000
vt 1.000000 0.000000
vt 0.000000 1.000000
vt 0.000000 0.000000
vt 0.000000 0.000000
vt 1.000000 1.000000
vt 0.000000 1.000000
vt 0.000000 0.000000
vt 1.000000 1.000000
vt 1.000000 0.000000
vt 1.000000 1.000000
vt 1.000000 0.000000
vt 0.000000 1.000000
vt 0.000000 0.000000
vt 1.000000 0.000000
vt 0.000000 1.000000
vt 0.000000 0.000000
vt 1.000000 0.000000
vt 0.000000 1.000000
vt 0.000000 0.000000
vt 0.000000 0.000000
vt 1.000000 1.000000
vt 0.000000 1.000000
vt 0.000000 0.000000
vt 1.000000 1.000000
vt 1.000000 0.000000
vt 1.000000 1.000000
vt 1.000000 0.000000
vt 0.000000 1.000000
vt 0.000000 0.000000
vt 1.000000 0.000000
vt 0.000000 1.000000
vt 0.000000 0.000000
vt 0.000000 0.000000
vt 1.000000 1.000000
vt 0.000000 1.000000
vt 0.000000 0.000000
vt 1.000000 1.000000
vt 1.000000 0.000000
vt 1.000000 1.000000
vt 1.000000 0.000000
vt 0.000000 1.000000
vt 0.000000 0.000000
vt 1.000000 0.000000
vt 0.000000 1.000000
vt 0.000000 0.000000
vt 1.000000 0.000000
vt 0.000000 1.000000
vt 0.000000 0.000000
vt 0.000000 0.000000
vt 1.000000 1.000000
vt 1.000000 0.000000
vt 1.000000 1.000000
vt 1.000000 0.000000
vt 0.000000 1.000000
vt 0.000000 0.000000
vt 1.000000 0.000000
vt 0.000000 1.000000
vt 0.000000 0.000000
vt 0.000000 0.000000
vt 1.000000 1.000000
vt 0.000000 1.000000
vt 1.000000 0.000000
vt 0.000000 1.000000
vt 0.000000 0.000000
vt 1.000000 1.000000
vt 1.000000 1.000000
vt 1.000000 1.000000
vt 1.000000 1.000000
vt 1.000000 0.000000
vt 1.000000 1.000000
vt 1.000000 1.000000
vt 1.000000 1.000000
vt 1.000000 1.000000
vt 1.000000 1.000000
vt 1.000000 1.000000
vt 1.000000 1.000000
vt 1.000000 1.000000
vt 1.000000 0.000000
vt 1.000000 1.000000
vt 1.000000 1.000000
vt 1.000000 0.000000
vt 1.000000 1.000000
vt 1.000000 0.000000
vt 1.000000 1.000000
vt 1.000000 1.000000
vt 1.000000 1.000000
vt 1.000000 0.000000
vt 1.000000 1.000000
vn 0.1066 -0.9604 -0.2573
vn 0.3715 -0.2403 -0.8968
vn 0.2811 0.6786 -0.6786
vn 0.2811 -0.6786 -0.6786
vn 0.3715 0.2403 -0.8968
vn 0.1066 0.9604 -0.2573
vn 0.6786 0.6786 -0.2811
vn 0.6786 -0.6786 -0.2811
vn 0.8968 0.2403 -0.3715
vn 0.2573 0.9604 -0.1066
vn 0.2573 -0.9604 -0.1066
vn 0.8968 -0.2403 -0.3715
vn 0.6786 -0.6786 0.2811
vn 0.8968 0.2403 0.3715
vn 0.2573 0.9604 0.1066
vn 0.2573 -0.9604 0.1066
vn 0.8968 -0.2403 0.3715
vn 0.6786 0.6786 0.2811
vn 0.2811 -0.6786 0.6786
vn 0.3715 0.2403 0.8968
vn 0.1066 0.9604 0.2573
vn 0.1066 -0.9604 0.2573
vn 0.3715 -0.2403 0.8968
vn 0.2811 0.6786 0.6786
vn -0.2811 -0.6786 0.6786
vn -0.3715 0.2403 0.8968
vn -0.1066 0.9604 0.2573
vn -0.1066 -0.9604 0.2573
vn -0.3715 -0.2403 0.8968
vn -0.2811 0.6786 0.6786
vn -0.6786 -0.6786 0.2811
vn -0.8968 0.2403 0.3715
vn -0.2573 0.9604 0.1066
vn -0.2573 -0.9604 0.1066
vn -0.8968 -0.2403 0.3715
vn -0.6786 0.6786 0.2811
vn -0.8968 0.2403 -0.3715
vn -0.2573 0.9604 -0.1066
vn -0.2573 -0.9604 -0.1066
vn -0.8968 -0.2403 -0.3715
vn -0.6786 0.6786 -0.2811
vn -0.6786 -0.6786 -0.2811
vn -0.1066 0.9604 -0.2573
vn -0.1066 -0.9604 -0.2573
vn -0.3715 -0.2403 -0.8968
vn -0.2811 0.6786 -0.6786
vn -0.2811 -0.6786 -0.6786
vn -0.3715 0.2403 -0.8968
usemtl None
s off
f 1/1/1 42/2/1 7/3/1
f 40/4/2 6/5/2 41/6/2
f 38/7/3 4/8/3 39/9/3
f 41/10/4 7/11/4 42/12/4
f 39/13/5 5/14/5 40/15/5
f 38/16/6 2/17/6 3/18/6
f 3/19/7 9/20/7 4/21/7
f 6/22/8 12/23/8 7/24/8
f 5/25/9 9/26/9 10/27/9
f 3/28/10 2/17/10 8/29/10
f 1/1/11 7/30/11 12/31/11
f 5/32/12 11/33/12 6/34/12
f 11/35/13 17/36/13 12/37/13
f 9/38/14 15/39/14 10/40/14
f 8/41/15 2/17/15 13/42/15
f 1/1/16 12/43/16 17/44/16
f 10/45/17 16/46/17 11/47/17
f 8/48/18 14/49/18 9/50/18
f 16/51/19 22/52/19 17/53/19
f 14/54/20 20/55/20 15/56/20
f 13/57/21 2/17/21 18/58/21
f 1/1/22 17/59/22 22/60/22
f 15/61/23 21/62/23 16/63/23
f 13/64/24 19/65/24 14/66/24
f 21/67/25 27/68/25 22/69/25
f 20/70/26 24/71/26 25/72/26
f 18/73/27 2/17/27 23/74/27
f 1/1/28 22/75/28 27/76/28
f 20/77/29 26/78/29 21/79/29
f 18/80/30 24/81/30 19/82/30
f 26/83/31 32/84/31 27/85/31
f 25/86/32 29/87/32 30/88/32
f 23/89/33 2/17/33 28/90/33
f 1/1/34 27/91/34 32/92/34
f 25/93/35 31/94/35 26/95/35
f 23/96/36 29/97/36 24/98/36
f 30/99/37 34/100/37 35/101/37
f 28/102/38 2/17/38 33/103/38
f 1/1/39 32/104/39 37/105/39
f 30/106/40 36/107/40 31/108/40
f 28/109/41 34/110/41 29/111/41
f 31/112/42 37/113/42 32/114/42
f 33/115/43 2/17/43 38/116/43
f 1/1/44 37/117/44 42/118/44
f 35/119/45 41/120/45 36/121/45
f 33/122/46 39/123/46 34/124/46
f 37/125/47 41/126/47 42/127/47
f 34/128/48 40/129/48 35/130/48
f 40/4/2 5/131/2 6/5/2
f 38/7/3 3/18/3 4/8/3
f 41/10/4 6/132/4 7/11/4
f 39/13/5 4/133/5 5/14/5
f 3/19/7 8/29/7 9/20/7
f 6/22/8 11/134/8 12/23/8
f 5/25/9 4/135/9 9/26/9
f 5/32/12 10/136/12 11/33/12
f 11/35/13 16/137/13 17/36/13
f 9/38/14 14/138/14 15/39/14
f 10/45/17 15/139/17 16/46/17
f 8/48/18 13/42/18 14/49/18
f 16/51/19 21/140/19 22/52/19
f 14/54/20 19/141/20 20/55/20
f 15/61/23 20/142/23 21/62/23
f 13/64/24 18/58/24 19/65/24
f 21/67/25 26/143/25 27/68/25
f 20/70/26 19/144/26 24/71/26
f 20/77/29 25/145/29 26/78/29
f 18/80/30 23/74/30 24/81/30
f 26/83/31 31/146/31 32/84/31
f 25/86/32 24/147/32 29/87/32
f 25/93/35 30/148/35 31/94/35
f 23/96/36 28/90/36 29/97/36
f 30/99/37 29/149/37 34/100/37
f 30/106/40 35/150/40 36/107/40
f 28/109/41 33/103/41 34/110/41
f 31/112/42 36/151/42 37/113/42
f 35/119/45 40/152/45 41/120/45
f 33/122/46 38/116/46 39/123/46
f 37/125/47 36/153/47 41/126/47
f 34/128/48 39/154/48 40/129/48
